<?xml version="1.0" standalone="no"?>
<!DOCTYPE svg PUBLIC "-//W3C//DTD SVG 20010904//EN"
 "http://www.w3.org/TR/2001/REC-SVG-20010904/DTD/svg10.dtd">
<svg version="1.0" xmlns="http://www.w3.org/2000/svg"
 width="86.000000pt" height="86.000000pt" viewBox="0 0 86.000000 86.000000"
 preserveAspectRatio="xMidYMid meet">
<metadata>
Created by potrace 1.11, written by Peter Selinger 2001-2013
</metadata>
<g transform="translate(0.000000,86.000000) scale(0.100000,-0.100000)"
fill="#000000" stroke="none">
<path d="M350 729 c-12 -22 3 -59 23 -59 33 1 54 42 30 61 -23 20 -42 19 -53
-2z"/>
<path d="M458 733 c-28 -34 3 -74 42 -53 20 11 21 30 1 54 -17 20 -24 20 -43
-1z"/>
<path d="M260 697 c-9 -7 -15 -18 -14 -24 1 -7 2 -17 3 -22 2 -18 36 -17 58 2
20 18 20 20 5 38 -19 22 -31 23 -52 6z"/>
<path d="M553 698 c-14 -23 -13 -43 4 -55 22 -17 53 1 53 31 0 32 -41 49 -57
24z"/>
<path d="M405 642 c-16 -11 -12 -44 8 -56 20 -13 52 2 52 25 1 30 -36 49 -60
31z"/>
<path d="M660 643 c0 -7 -6 -10 -14 -7 -18 7 -28 -23 -16 -46 14 -26 60 -15
60 14 0 16 -29 55 -30 39z"/>
<path d="M174 626 c-16 -41 17 -67 52 -42 24 18 10 56 -22 56 -14 0 -27 -6
-30 -14z"/>
<path d="M313 622 c-32 -22 -11 -79 25 -68 21 7 34 37 23 53 -9 14 -36 22 -48
15z"/>
<path d="M495 599 c-8 -24 2 -38 33 -44 30 -5 48 28 26 49 -22 22 -51 20 -59
-5z"/>
<path d="M132 544 c-25 -17 -19 -50 11 -58 35 -9 58 43 27 62 -13 8 -22 7 -38
-4z"/>
<path d="M679 538 c-9 -16 -8 -22 2 -29 8 -5 10 -9 4 -10 -5 0 -1 -4 10 -8 27
-11 49 12 36 38 -16 29 -39 33 -52 9z"/>
<path d="M229 541 c-4 -36 -2 -45 12 -54 27 -17 51 -1 47 30 -2 22 -9 29 -30
31 -16 2 -29 -1 -29 -7z"/>
<path d="M353 524 c-16 -26 -16 -27 6 -45 17 -14 26 -16 40 -8 25 16 23 41 -5
62 -23 17 -24 17 -41 -9z"/>
<path d="M454 529 c-15 -16 -15 -23 -5 -43 15 -27 38 -28 57 -2 15 21 11 37
-15 53 -16 10 -22 8 -37 -8z"/>
<path d="M571 532 c-12 -23 4 -52 30 -52 23 0 42 39 27 58 -15 18 -46 15 -57
-6z"/>
<path d="M209 441 c-20 -16 -21 -20 -8 -37 16 -22 45 -29 54 -14 28 45 -6 84
-46 51z"/>
<path d="M324 449 c-28 -10 -37 -35 -18 -54 19 -19 29 -19 48 1 19 18 19 24 3
45 -8 11 -19 14 -33 8z"/>
<path d="M409 444 c-26 -31 -18 -55 21 -61 18 -3 44 33 35 47 -14 23 -43 30
-56 14z"/>
<path d="M511 450 c-8 -4 -15 -19 -16 -33 -2 -19 2 -26 19 -29 33 -7 46 1 46
27 0 27 -29 48 -49 35z"/>
<path d="M608 446 c-30 -23 -19 -56 20 -62 6 -1 19 7 27 19 13 18 12 22 -7 39
-12 10 -21 18 -22 18 -1 0 -9 -7 -18 -14z"/>
<path d="M103 434 c-8 -21 8 -46 30 -50 24 -3 42 33 26 52 -16 19 -48 18 -56
-2z"/>
<path d="M706 438 c-9 -5 -16 -14 -16 -19 0 -6 4 -7 10 -4 5 3 7 0 4 -8 -3
-10 3 -16 21 -19 14 -3 23 -3 20 0 -2 3 0 11 5 17 24 28 -9 52 -44 33z"/>
<path d="M352 354 c-17 -18 -10 -39 16 -53 29 -15 58 19 42 48 -13 24 -39 27
-58 5z"/>
<path d="M452 358 c-17 -17 -15 -32 6 -51 16 -15 20 -15 40 -2 14 10 19 21 15
33 -12 32 -40 41 -61 20z"/>
<path d="M236 345 c-20 -20 -20 -29 -1 -48 17 -18 55 -11 55 9 0 8 1 17 3 20
1 4 -8 13 -19 21 -19 12 -24 12 -38 -2z"/>
<path d="M121 332 c-12 -22 8 -52 33 -48 26 4 41 33 26 52 -17 19 -47 18 -59
-4z"/>
<path d="M569 338 c-2 -24 3 -43 13 -49 16 -10 46 1 50 19 8 29 -3 42 -33 42
-16 0 -30 -6 -30 -12z"/>
<path d="M685 337 c-15 -18 -7 -44 16 -50 28 -8 52 39 27 54 -18 12 -31 11
-43 -4z"/>
<path d="M310 270 c-26 -26 -12 -62 22 -57 26 4 39 36 24 60 -14 22 -21 22
-46 -3z"/>
<path d="M507 278 c-34 -19 -13 -69 27 -62 25 4 37 24 26 45 -12 22 -32 29
-53 17z"/>
<path d="M191 257 c-13 -6 -23 -15 -22 -19 0 -5 1 -14 1 -22 0 -17 45 -27 59
-13 14 14 14 29 -1 50 -11 14 -17 15 -37 4z"/>
<path d="M650 262 c-33 -11 -39 -46 -12 -61 22 -12 41 -1 46 25 5 23 -14 42
-34 36z"/>
<path d="M403 248 c-14 -24 -11 -38 10 -53 18 -13 23 -13 38 1 20 18 19 42 -2
55 -20 12 -36 11 -46 -3z"/>
<path d="M260 190 c-28 -18 -14 -60 21 -60 25 0 44 37 28 56 -13 16 -28 18
-49 4z"/>
<path d="M550 186 c-10 -13 -9 -20 4 -41 14 -22 19 -23 37 -12 27 16 22 61 -7
65 -11 2 -27 -4 -34 -12z"/>
<path d="M356 154 c-20 -19 -20 -29 0 -48 21 -21 30 -20 48 6 17 24 14 33 -14
48 -14 7 -23 6 -34 -6z"/>
<path d="M470 162 c-8 -3 -18 -9 -21 -15 -7 -11 0 -47 10 -48 3 0 14 -2 23 -4
19 -3 31 9 35 35 3 19 -26 39 -47 32z"/>
</g>
</svg>
